<?xml version="1.0" encoding="utf-8"?>
<!-- Generator: Adobe Illustrator 23.0.5, SVG Export Plug-In . SVG Version: 6.00 Build 0)  -->
<svg version="1.1" id="Layer_1" xmlns="http://www.w3.org/2000/svg" xmlns:xlink="http://www.w3.org/1999/xlink" x="0px" y="0px"
	 viewBox="0 0 40 40" style="enable-background:new 0 0 40 40;" xml:space="preserve">
<style type="text/css">
	.st0{fill:#FFFFFF;}
</style>
<g>
	<g>
		<polygon class="st0" points="39.81,27.8 35.8,31.81 8.19,4.23 12.21,0.22 		"/>
	</g>
	<polygon class="st0" points="7.43,11.37 1.05,11.37 0.23,12.19 27.83,39.77 31.85,35.76 	"/>
	<g>
		<polygon class="st0" points="9.7,5.7 9.7,5.71 17.69,5.71 12.02,0.04 0,0.04 0,5.7 		"/>
		<polygon class="st0" points="14.35,34.33 5.67,34.33 5.67,11.37 0,11.37 0,40 20.02,40 		"/>
	</g>
	<polygon class="st0" points="20.04,0.04 25.72,5.71 34.32,5.71 34.32,34.33 22.37,34.33 28.05,40 40,40 40,0.04 	"/>
</g>
</svg>
